<?xml version="1.0" standalone="no"?>
<!DOCTYPE svg PUBLIC "-//W3C//DTD SVG 20010904//EN"
 "http://www.w3.org/TR/2001/REC-SVG-20010904/DTD/svg10.dtd">
<svg version="1.0" xmlns="http://www.w3.org/2000/svg"
 width="500.000000pt" height="382.000000pt" viewBox="0 0 500.000000 382.000000"
 preserveAspectRatio="xMidYMid meet">

<g transform="translate(0.000000,382.000000) scale(0.100000,-0.100000)"
fill="#000000" stroke="none">
<path d="M2918 3813 c6 -2 18 -2 25 0 6 3 1 5 -13 5 -14 0 -19 -2 -12 -5z"/>
<path d="M3098 3813 c7 -3 16 -2 19 1 4 3 -2 6 -13 5 -11 0 -14 -3 -6 -6z"/>
<path d="M2920 3709 c-66 -8 -104 -22 -146 -54 l-32 -24 -407 -3 -407 -3 -24
-30 -23 -29 0 -396 -1 -395 63 68 62 68 355 -1 c308 0 352 -2 334 -14 -11 -8
-58 -64 -104 -125 l-85 -111 -288 0 -288 0 -24 -25 c-25 -24 -25 -25 -25 -218
l0 -193 -80 -33 c-109 -44 -200 -96 -273 -155 -50 -41 -57 -44 -34 -17 34 41
35 83 2 116 -13 14 -31 25 -40 25 -30 0 -91 -39 -130 -81 -21 -24 -35 -34 -31
-24 6 17 36 195 36 218 0 4 28 7 63 7 39 0 77 7 103 19 91 41 114 130 43 167
-26 13 -33 13 -66 -1 -49 -21 -101 -70 -122 -117 l-17 -37 -12 109 c-7 60 -15
115 -18 123 -3 9 12 18 53 30 75 20 121 52 146 100 29 57 8 109 -50 123 -50
13 -136 -87 -149 -174 l-7 -47 -12 45 c-15 57 -27 85 -20 45 3 -16 8 -39 11
-50 4 -13 -2 -9 -14 10 -81 125 -222 147 -222 34 0 -30 7 -43 35 -68 43 -37
71 -46 152 -46 47 0 64 -3 68 -15 4 -8 9 -62 11 -120 l6 -105 -25 51 c-26 55
-94 119 -132 127 -33 6 -67 -13 -83 -45 -18 -39 5 -89 57 -124 32 -20 57 -28
112 -32 l70 -5 -6 -51 c-4 -28 -13 -80 -21 -116 -27 -126 -24 -121 -45 -66
-29 78 -105 146 -162 146 -29 0 -67 -39 -67 -69 0 -67 66 -119 166 -131 36 -5
68 -10 71 -13 5 -5 -55 -242 -67 -266 -5 -10 -10 -5 -15 17 -9 43 -87 128
-131 142 -29 10 -39 9 -60 -5 -92 -60 -11 -176 134 -191 71 -8 69 -1 47 -123
-15 -89 -29 -117 -39 -84 -9 29 -77 91 -108 98 -22 6 -33 1 -59 -24 -17 -17
-39 -31 -48 -31 -50 0 -100 -77 -110 -170 l-7 -55 -23 85 c-13 46 -24 104 -25
128 l-1 45 55 18 c57 20 103 56 126 101 19 37 18 61 -7 92 -45 57 -127 18
-171 -82 -11 -24 -21 -42 -22 -40 -2 2 -6 59 -10 128 l-6 125 62 18 c138 41
194 168 95 215 -40 19 -83 -9 -127 -83 l-35 -59 -7 75 c-4 41 -11 92 -16 114
l-9 41 61 18 c84 24 146 86 146 144 0 32 -6 45 -26 61 -33 26 -50 26 -90 2
-35 -21 -94 -127 -94 -170 -1 -19 -7 -9 -24 34 -13 33 -36 85 -51 114 -23 47
-25 55 -11 63 40 22 103 77 123 107 43 63 23 142 -38 156 -62 15 -128 -97
-116 -196 3 -27 4 -49 2 -49 -1 0 -15 20 -29 45 -15 25 -29 45 -32 45 -3 0 4
-16 16 -35 l22 -35 -51 32 c-36 22 -68 33 -105 36 -48 4 -55 2 -74 -23 -29
-37 -28 -58 5 -95 49 -54 100 -57 239 -15 18 6 24 -2 47 -57 56 -132 73 -198
37 -142 -35 54 -121 104 -179 104 -35 0 -71 -38 -71 -74 0 -37 46 -81 100 -96
34 -9 56 -9 109 3 36 9 67 14 68 13 4 -4 22 -144 26 -210 l5 -69 -39 46 c-69
80 -175 112 -219 65 -40 -43 -18 -103 50 -133 39 -18 127 -17 188 1 22 6 22 6
22 -114 0 -66 3 -135 6 -153 l6 -34 -24 32 c-69 91 -179 130 -226 80 -72 -77
41 -172 175 -147 31 5 60 10 64 10 4 0 11 -21 14 -47 10 -65 32 -174 41 -198
4 -10 -10 0 -31 24 -42 46 -101 81 -138 81 -36 0 -67 -35 -67 -76 0 -71 86
-120 194 -112 l62 5 44 -130 c25 -72 46 -137 48 -144 3 -10 -19 -13 -92 -13
-59 0 -96 -4 -96 -10 0 -6 21 -129 46 -273 60 -346 94 -541 94 -544 0 -2 114
-3 254 -3 234 0 255 1 260 18 2 9 15 77 27 149 l23 133 55 -57 c116 -117 270
-213 427 -267 l69 -23 -154 -8 c-84 -4 -165 -11 -180 -15 -93 -25 584 -41
1649 -39 689 1 928 -2 968 -11 29 -6 56 -10 58 -7 3 3 -14 8 -38 12 -61 10
-132 42 -160 72 -20 23 -18 22 21 -6 24 -17 49 -31 55 -31 6 0 -5 9 -24 21
-19 11 -46 32 -59 47 -13 15 -20 22 -17 15 3 -6 3 -18 0 -27 -5 -13 -89 -15
-752 -15 l-747 -1 80 33 c515 210 794 735 679 1277 -6 27 118 -198 190 -345
25 -49 86 -189 136 -310 99 -238 139 -313 224 -419 54 -67 55 -69 41 -97 -25
-48 -19 -67 32 -99 26 -17 53 -30 61 -30 8 0 -9 13 -39 29 -58 31 -71 58 -43
96 15 19 17 18 64 -35 26 -30 44 -58 38 -61 -5 -3 -1 -9 10 -11 14 -4 19 -2
15 7 -3 8 12 21 40 33 24 11 48 25 51 31 15 23 186 -115 186 -150 0 -10 -8
-20 -17 -22 -15 -4 -15 -5 -2 -6 9 0 22 6 29 14 9 11 34 15 89 16 42 0 96 4
121 8 l45 7 -45 7 c-25 3 -84 9 -133 12 l-87 5 -88 66 -87 67 -33 90 -32 89
88 172 c49 94 101 201 116 238 27 63 28 70 16 120 -7 29 -53 155 -102 280
-100 254 -161 365 -309 561 -85 112 -89 119 -74 140 9 13 15 44 15 78 0 50 9
75 66 196 117 245 173 371 180 408 9 50 -3 100 -32 135 -14 16 -147 120 -295
231 l-269 202 0 208 c0 205 0 208 -24 236 l-24 28 -151 3 c-147 4 -150 4 -148
25 4 42 -91 69 -193 56z m-7 -106 c-13 -2 -35 -2 -50 0 -16 2 -5 4 22 4 28 0
40 -2 28 -4z m-111 -31 c-15 -15 -29 -26 -31 -25 -6 4 41 53 50 53 4 0 -4 -13
-19 -28z m206 21 c-10 -2 -28 -2 -40 0 -13 2 -5 4 17 4 22 1 32 -1 23 -4z
m-802 -57 c26 -26 34 -42 34 -71 0 -52 -53 -105 -105 -105 -52 0 -105 53 -105
105 0 52 53 105 105 105 29 0 45 -8 71 -34z m914 4 c0 -10 -3 -21 -7 -23 -5
-3 -8 8 -8 23 0 15 3 26 8 23 4 -2 7 -13 7 -23z m-237 -7 c-7 -2 -21 -2 -30 0
-10 3 -4 5 12 5 17 0 24 -2 18 -5z m-54 -6 c-2 -1 -13 -9 -24 -17 -19 -14 -19
-14 -6 3 7 9 18 17 24 17 6 0 8 -1 6 -3z m111 -7 c18 -12 2 -12 -25 0 -13 6
-15 9 -5 9 8 0 22 -4 30 -9z m47 -16 c-3 -3 -12 -4 -19 -1 -8 3 -5 6 6 6 11 1
17 -2 13 -5z m-284 -19 c-3 -9 -8 -14 -10 -11 -3 3 -2 9 2 15 9 16 15 13 8 -4z
m340 8 c-7 -2 -19 -2 -25 0 -7 3 -2 5 12 5 14 0 19 -2 13 -5z m-72 -19 l96
-17 18 -55 c9 -30 25 -69 36 -86 35 -58 18 -159 -36 -213 -35 -35 -50 -39
-107 -23 -41 12 -138 94 -138 117 0 10 -6 13 -16 9 -22 -8 -74 24 -74 46 0 21
11 23 28 6 20 -20 45 11 39 48 -4 22 -1 37 9 45 20 16 18 30 -11 68 -19 26
-22 38 -14 52 12 24 45 24 170 3z m-224 -29 c-7 -13 -14 -20 -15 -14 -2 5 2
16 8 24 18 21 20 18 7 -10z m-60 -7 c-3 -8 -6 -5 -6 6 -1 11 2 17 5 13 3 -3 4
-12 1 -19z m23 -43 c14 -19 14 -19 -2 -6 -10 7 -18 18 -18 24 0 6 1 8 3 6 1
-2 9 -13 17 -24z m32 -135 l-4 -30 -339 0 c-293 0 -340 2 -345 15 -4 8 -4 22
0 30 5 13 53 15 349 15 l344 0 -5 -30z m461 -103 c19 -20 28 -22 67 -16 25 4
74 8 110 8 l65 1 275 -205 c291 -216 330 -254 330 -323 0 -40 -35 -129 -125
-317 -37 -77 -80 -168 -96 -202 l-28 -63 -36 21 c-19 12 -37 24 -40 29 -2 4
16 68 40 141 52 155 120 408 111 416 -3 4 -6 -1 -6 -10 0 -27 -18 -29 -66 -8
-73 32 -286 162 -279 169 3 4 27 15 53 24 41 16 43 17 12 12 l-35 -6 30 27
c30 26 21 25 -23 -3 -18 -12 -20 -17 -10 -24 9 -6 6 -7 -9 -3 -12 3 -25 1 -30
-7 -5 -8 -13 17 -20 67 l-12 80 5 -80 c4 -69 34 -218 135 -682 l22 -102 -24
-48 c-46 -88 -151 -145 -298 -162 -87 -9 -171 0 -207 24 -13 8 -38 43 -55 78
-17 34 -39 71 -49 82 -20 23 -168 266 -228 376 l-42 77 31 26 c17 14 38 26 47
27 12 0 13 2 4 6 -10 4 -2 17 25 46 21 23 -16 -10 -82 -72 -66 -63 -144 -134
-173 -159 -58 -50 -50 -49 -119 -4 -13 8 -23 12 -23 9 0 -6 315 -213 378 -248
25 -15 40 -29 37 -37 -3 -8 -5 -22 -5 -33 0 -13 -7 -19 -21 -19 -13 0 -19 5
-16 13 2 6 7 23 11 37 6 22 5 21 -10 -5 -9 -16 -18 -32 -20 -34 -7 -8 -473
111 -502 129 -32 20 -57 63 -49 84 8 21 171 242 303 412 131 169 182 221 256
259 l37 19 63 -44 c127 -89 222 -150 234 -150 14 0 30 38 20 47 -3 4 -6 -1 -6
-10 0 -41 -25 -29 -228 112 -72 50 -104 61 -117 41 -11 -18 -25 -11 -25 13 0
33 26 64 70 87 51 26 57 25 65 -7 16 -66 105 -172 173 -207 44 -22 55 -3 58
97 l3 82 -8 -83 c-5 -46 -13 -88 -18 -93 -13 -13 -95 43 -132 90 -32 41 -67
108 -60 116 3 2 21 -1 41 -7 47 -14 85 -4 119 33 l27 29 7 -41 c4 -22 9 -38
12 -35 3 3 1 25 -6 50 -6 24 -8 52 -5 60 9 23 42 20 67 -7z m-335 -20 c12 -13
19 -27 15 -30 -3 -4 -190 -7 -415 -7 -354 0 -409 2 -414 15 -4 8 -4 22 0 30 5
13 58 15 399 15 l394 0 21 -23z m731 -407 c60 -37 234 -129 258 -136 10 -2
-113 -411 -152 -506 -24 -59 -57 37 -129 372 -67 312 -69 320 -62 320 3 0 41
-22 85 -50z m-1419 -135 c101 -52 67 -194 -46 -195 -103 0 -141 129 -55 187
40 27 61 29 101 8z m67 -295 l-11 -30 -89 0 c-91 0 -108 8 -93 45 4 12 26 15
105 15 l99 0 -11 -30z m607 8 c9 -12 16 -26 16 -30 0 -5 -46 -8 -103 -8 -93 0
-106 2 -140 25 -20 14 -37 28 -37 30 0 3 56 5 124 5 118 0 126 -1 140 -22z
m80 -133 c9 -13 16 -27 16 -30 0 -13 -69 -3 -105 16 -65 34 -64 39 7 39 59 0
67 -3 82 -25z m100 -163 c8 -26 18 -64 22 -84 9 -52 -15 -51 -58 3 -18 23 -50
50 -70 60 -61 31 -73 60 -52 127 3 10 23 3 73 -23 64 -34 71 -41 85 -83z m656
-4 c0 -57 -187 -176 -315 -199 -73 -14 -192 -6 -232 14 -26 14 -53 53 -53 77
0 5 17 2 38 -7 24 -10 67 -16 122 -16 189 0 338 74 387 192 l15 36 19 -35 c10
-19 18 -47 19 -62z m108 -30 c2 -34 -2 -60 -11 -72 -13 -18 -16 -15 -51 43
-36 62 -42 84 -30 115 6 15 11 14 48 -8 39 -23 41 -27 44 -78z m-2394 -50
c-32 -35 -73 -84 -92 -110 -19 -27 -37 -48 -41 -48 -4 0 -20 -17 -35 -37 -16
-22 -25 -29 -22 -18 3 11 17 71 32 133 l26 112 61 0 c34 1 76 7 92 15 17 7 32
14 34 14 2 1 -23 -27 -55 -61z m1706 -93 c10 -11 24 -33 29 -50 l11 -30 -20
25 c-56 70 -69 96 -63 120 6 24 7 23 16 -10 5 -19 17 -44 27 -55z m550 -90 c0
-3 -11 7 -25 23 -14 17 -25 33 -25 37 0 3 11 -7 25 -23 14 -17 25 -33 25 -37z
m-96 39 c3 -8 2 -12 -4 -9 -6 3 -10 10 -10 16 0 14 7 11 14 -7z m-264 -22 c0
-5 -7 -17 -15 -28 -14 -18 -14 -17 -4 9 12 27 19 34 19 19z m-100 -37 c0 -5
-5 -3 -10 5 -5 8 -10 20 -10 25 0 6 5 3 10 -5 5 -8 10 -19 10 -25z m410 -18
c0 -12 0 -11 -24 28 l-17 30 20 -24 c12 -13 21 -28 21 -34z m32 0 c-12 -13
-23 -32 -23 -43 -1 -18 -2 -18 -6 -1 -4 16 31 67 45 67 3 0 -4 -10 -16 -23z
m-372 -1 c0 -2 -8 -10 -17 -17 -16 -13 -17 -12 -4 4 13 16 21 21 21 13z m450
0 c0 -2 -8 -10 -17 -17 -16 -13 -17 -12 -4 4 13 16 21 21 21 13z m-493 -48 c2
-18 0 -20 -7 -8 -12 18 -13 30 -2 30 4 0 9 -10 9 -22z m434 -2 l-23 -25 33 -4
34 -4 -38 -1 c-35 -2 -38 -4 -32 -24 5 -18 4 -20 -4 -8 -17 24 -13 39 17 65
35 31 42 32 13 1z m-411 -61 c0 -5 -5 -3 -10 5 -5 8 -10 20 -10 25 0 6 5 3 10
-5 5 -8 10 -19 10 -25z m410 -60 c0 -5 -5 -3 -10 5 -5 8 -10 20 -10 25 0 6 5
3 10 -5 5 -8 10 -19 10 -25z m30 -80 c0 -5 -5 -3 -10 5 -5 8 -10 20 -10 25 0
6 5 3 10 -5 5 -8 10 -19 10 -25z m-370 5 c6 -11 8 -20 6 -20 -3 0 -10 9 -16
20 -6 11 -8 20 -6 20 3 0 10 -9 16 -20z m384 -36 c3 -8 2 -12 -4 -9 -6 3 -10
10 -10 16 0 14 7 11 14 -7z m-354 -14 c6 -11 8 -20 6 -20 -3 0 -10 9 -16 20
-6 11 -8 20 -6 20 3 0 10 -9 16 -20z m-2354 -29 c5 -5 33 -16 62 -26 l53 -17
-7 -36 c-10 -49 -10 -235 0 -294 l7 -48 -104 0 -105 0 -45 123 c-24 67 -48
132 -51 144 -6 18 2 26 55 55 38 20 72 47 88 70 28 40 32 43 47 29z m2394 -41
c6 -11 8 -20 6 -20 -3 0 -10 9 -16 20 -6 11 -8 20 -6 20 3 0 10 -9 16 -20z
m447 -180 c150 -252 163 -279 163 -339 0 -73 -21 -206 -30 -190 -25 45 -266
740 -252 724 5 -6 59 -93 119 -195z m-417 130 c6 -11 8 -20 6 -20 -3 0 -10 9
-16 20 -6 11 -8 20 -6 20 3 0 10 -9 16 -20z m35 -60 c9 -16 13 -30 11 -30 -3
0 -12 14 -21 30 -9 17 -13 30 -11 30 3 0 12 -13 21 -30z m40 -70 c9 -16 13
-30 11 -30 -3 0 -12 14 -21 30 -9 17 -13 30 -11 30 3 0 12 -13 21 -30z m61
-111 c19 -39 34 -73 32 -75 -2 -2 -21 30 -41 71 -20 41 -35 75 -32 75 3 0 21
-32 41 -71z m41 -141 c-2 -13 -4 -5 -4 17 -1 22 1 32 4 23 2 -10 2 -28 0 -40z
m473 -28 c8 -5 11 -10 5 -10 -5 0 -17 5 -25 10 -8 5 -10 10 -5 10 6 0 17 -5
25 -10z m1 -37 c13 -17 13 -17 -6 -3 -11 8 -22 16 -24 17 -2 2 0 3 6 3 6 0 17
-8 24 -17z m76 11 c-3 -3 -12 -4 -19 -1 -8 3 -5 6 6 6 11 1 17 -2 13 -5z m56
-11 c-7 -2 -19 -2 -25 0 -7 3 -2 5 12 5 14 0 19 -2 13 -5z m-514 -103 c0 -13
-1 -13 -6 0 -3 8 -22 33 -42 55 l-36 40 43 -40 c23 -21 42 -46 41 -55z m467
52 c-5 -4 -66 26 -66 33 0 3 16 -3 35 -12 19 -9 33 -18 31 -21z m-459 -104
c-3 -8 -6 -5 -6 6 -1 11 2 17 5 13 3 -3 4 -12 1 -19z m23 -53 c0 -5 -5 -3 -10
5 -5 8 -10 20 -10 25 0 6 5 3 10 -5 5 -8 10 -19 10 -25z m20 -35 c6 -11 8 -20
6 -20 -3 0 -10 9 -16 20 -6 11 -8 20 -6 20 3 0 10 -9 16 -20z m35 -60 c9 -16
13 -30 11 -30 -3 0 -12 14 -21 30 -9 17 -13 30 -11 30 3 0 12 -13 21 -30z m35
-60 c6 -11 8 -20 6 -20 -3 0 -10 9 -16 20 -6 11 -8 20 -6 20 3 0 10 -9 16 -20z
m35 -60 c9 -16 13 -30 11 -30 -3 0 -12 14 -21 30 -9 17 -13 30 -11 30 3 0 12
-13 21 -30z m35 -60 c6 -11 8 -20 6 -20 -3 0 -10 9 -16 20 -6 11 -8 20 -6 20
3 0 10 -9 16 -20z m64 -107 c20 -32 27 -46 14 -31 -26 30 -62 88 -55 88 2 0
21 -26 41 -57z m61 -83 c10 -11 16 -20 13 -20 -3 0 -13 9 -23 20 -10 11 -16
20 -13 20 3 0 13 -9 23 -20z"/>
<path d="M3038 3419 c-28 -16 -23 -71 7 -99 14 -13 23 -30 20 -38 -2 -7 0 -10
5 -7 17 10 11 26 -15 47 -34 26 -35 80 -2 96 12 6 18 11 12 11 -5 0 -18 -4
-27 -10z"/>
<path d="M3040 3368 c0 -18 18 -34 28 -24 3 4 -2 14 -11 23 -16 16 -17 16 -17
1z"/>
<path d="M2877 3352 c-10 -10 -17 -23 -17 -28 0 -4 7 1 15 13 8 12 28 24 43
26 l27 4 -26 2 c-14 0 -33 -7 -42 -17z"/>
<path d="M2920 3308 c0 -9 5 -20 11 -23 17 -11 20 0 4 21 -13 17 -14 17 -15 2z"/>
<path d="M2948 3208 c5 -5 16 -8 23 -6 8 3 3 7 -10 11 -17 4 -21 3 -13 -5z"/>
<path d="M3212 3055 c-1 -28 -11 -84 -22 -124 -12 -40 -19 -75 -17 -78 11 -10
48 161 44 205 l-3 47 -2 -50z"/>
<path d="M2850 2600 c-8 -5 -10 -10 -5 -10 6 0 17 5 25 10 8 5 11 10 5 10 -5
0 -17 -5 -25 -10z"/>
<path d="M2355 2400 c-4 -7 3 -8 22 -4 38 9 42 14 10 14 -14 0 -29 -5 -32 -10z"/>
<path d="M1083 3038 c-55 -27 -51 -104 9 -168 18 -19 31 -39 30 -43 -1 -5 2
-6 7 -2 6 3 29 -4 52 -16 52 -26 62 -15 54 59 -6 64 -39 135 -73 162 -27 22
-46 24 -79 8z"/>
<path d="M233 2880 c-27 -11 -43 -40 -43 -76 0 -43 75 -109 140 -123 96 -21
103 -15 76 62 -34 93 -117 159 -173 137z"/>
<path d="M340 1236 c0 -2 8 -10 18 -17 15 -13 16 -12 3 4 -13 16 -21 21 -21
13z"/>
<path d="M465 1110 c21 -22 41 -40 44 -40 3 0 -13 18 -34 40 -21 22 -41 40
-44 40 -3 0 13 -18 34 -40z"/>
<path d="M661 804 c0 -11 3 -14 6 -6 3 7 2 16 -1 19 -3 4 -6 -2 -5 -13z"/>
<path d="M3900 176 c0 -3 9 -10 20 -16 11 -6 20 -8 20 -6 0 3 -9 10 -20 16
-11 6 -20 8 -20 6z"/>
<path d="M4198 33 c7 -3 16 -2 19 1 4 3 -2 6 -13 5 -11 0 -14 -3 -6 -6z"/>
</g>
</svg>
